<?xml version="1.0" encoding="UTF-8"?>
<svg version="1.1" xmlns="http://www.w3.org/2000/svg" width="1024" height="1024">
<path d="M0 0 C0.6276123 0.33193359 1.25522461 0.66386719 1.90185547 1.00585938 C25.92247528 13.72663832 47.77525159 30.44859022 69.73828125 46.36328125 C71.97939733 47.98509064 74.22351315 49.60265132 76.46875 51.21875 C84.98251137 57.34921677 93.45361902 63.53340421 101.89208984 69.76708984 C109.4766884 75.36432174 117.1158833 80.88408627 124.76611328 86.39111328 C129.26523169 89.63146195 133.75824119 92.88027702 138.25244141 96.12744141 C141.987945 98.82598022 145.7248148 101.52257953 149.46484375 104.21484375 C157.97920681 110.34756679 166.45216202 116.53232789 174.89208984 122.76708984 C183.21502749 128.90919634 191.60432215 134.95790683 200 141 C210.0063257 148.20122344 219.97939506 155.44255899 229.89428711 162.76928711 C235.23835931 166.71407273 240.60918153 170.61939001 246 174.5 C264.78602524 188.03312939 283.27032827 201.8488001 301.18408203 216.52050781 C302.75844883 217.80319977 304.34496236 219.07095538 305.93359375 220.3359375 C312.74238252 225.77892168 319.07800656 231.65141145 325.41015625 237.6328125 C328.38792571 240.44179197 331.42631004 243.17090138 334.5 245.875 C338.00450264 249.01060762 341.14711832 252.26608231 344.171875 255.86328125 C346.28927548 258.33810618 348.51999006 260.68873155 350.75 263.0625 C375.50856506 290.33824846 390.35929915 324.04858914 388.875 361.1875 C386.87359496 396.71326107 375.14503928 430.60290804 364.22314453 464.15673828 C361.88047221 471.35816116 359.56215989 478.56732766 357.24609375 485.77734375 C348.59947652 512.6825998 339.86932192 539.55903477 331.04827881 566.40768433 C326.07174296 581.55840075 321.14990164 596.72445363 316.31521606 611.92102051 C309.61470626 632.97274393 302.81540546 653.99221483 295.9487915 674.99029541 C294.87847923 678.26423898 293.8120586 681.53940493 292.74945068 684.81585693 C283.58041031 713.07223235 273.98282312 741.34362692 261.4375 768.3125 C261.13050171 768.98038544 260.82350342 769.64827087 260.50720215 770.33639526 C255.0068714 782.28259048 249.0185528 793.86383094 242 805 C241.54705566 805.71881348 241.09411133 806.43762695 240.62744141 807.17822266 C219.86291282 839.63539841 191.7958542 861.7084208 153.85546875 870.19140625 C125.42690415 876.13822501 96.23415571 876.15573173 67.31719029 876.14538372 C63.68148314 876.14517609 60.04578344 876.15073243 56.41007996 876.15544128 C49.31465247 876.16367364 42.21923329 876.16649279 35.12380142 876.16705366 C29.33852408 876.16753269 23.55324943 876.16960648 17.76797295 876.17275429 C1.27290305 876.18154316 -15.22216039 876.18617682 -31.71723264 876.18542381 C-33.04527499 876.18536388 -33.04527499 876.18536388 -34.40014648 876.18530273 C-35.28662223 876.18526185 -36.17309798 876.18522097 -37.08643664 876.18517885 C-51.40792451 876.18477361 -65.72938594 876.19431703 -80.05086618 876.2084411 C-94.84700521 876.22291498 -109.64313144 876.2297052 -124.43927771 876.22884732 C-132.70933094 876.22851896 -140.97935623 876.23116227 -149.249403 876.24202538 C-325.7811349 876.46243682 -325.7811349 876.46243682 -374 829 C-381.87974434 820.88391206 -388.32556511 811.76921699 -394 802 C-394.41185547 801.29536621 -394.82371094 800.59073242 -395.24804688 799.86474609 C-418.62193679 759.20647969 -430.44198267 711.50043016 -444.55786133 667.10961914 C-450.41889576 648.70005074 -456.45244657 630.34888691 -462.5 612 C-469.86125268 589.66282461 -477.15314587 567.30710352 -484.27636719 544.89257812 C-487.57360855 534.52656411 -490.91621735 524.17788903 -494.3359375 513.8515625 C-509.23283187 468.84012057 -523.04997442 424.00805784 -530 377 C-530.1148877 376.2562915 -530.22977539 375.51258301 -530.34814453 374.74633789 C-531.4245314 366.75045866 -531.24395908 358.61638001 -531.25 350.5625 C-531.25067474 349.75631226 -531.25134949 348.95012451 -531.25204468 348.11950684 C-531.2365542 336.4851475 -530.93057348 325.32052175 -528 314 C-527.83371094 313.33774414 -527.66742187 312.67548828 -527.49609375 311.99316406 C-521.13424279 287.28797619 -506.54409988 267.13599017 -488.625 249.375 C-487.75617188 248.4984375 -486.88734375 247.621875 -485.9921875 246.71875 C-479.97335378 240.71772348 -473.65342429 235.28234503 -467 230 C-465.76948694 228.99774451 -464.54012943 227.99406673 -463.3125 226.98828125 C-449.866634 216.09156475 -435.82136336 206.00899058 -421.77905273 195.90136719 C-416.24042453 191.91050176 -410.73969848 187.87034193 -405.25 183.8125 C-398.73140208 178.99594759 -392.17551521 174.23976924 -385.5703125 169.54296875 C-374.33484157 161.55154225 -363.19855572 153.42577605 -352.10888672 145.23364258 C-343.04893979 138.54759825 -333.90963888 131.97263981 -324.77050781 125.39550781 C-316.31406964 119.3076125 -307.88111091 113.19131259 -299.5 107 C-291.12051542 100.80988881 -282.68892637 94.69525691 -274.23388672 88.60888672 C-270.48640216 85.90987872 -266.74344155 83.20461116 -263 80.5 C-261.50002146 79.41663696 -260.00002146 78.33330362 -258.5 77.25 C-257.7575 76.71375 -257.015 76.1775 -256.25 75.625 C-254 74 -251.75 72.375 -249.5 70.75 C-248.75733887 70.21358887 -248.01467773 69.67717773 -247.24951172 69.12451172 C-245.75131101 68.04256821 -244.25293892 66.96086198 -242.75439453 65.87939453 C-238.97541574 63.15172912 -235.19961886 60.41984675 -231.4296875 57.6796875 C-191.86041503 28.94516123 -149.54756988 -0.5136128 -102 -14 C-100.8231665 -14.33668701 -100.8231665 -14.33668701 -99.62255859 -14.68017578 C-65.21651334 -24.07675448 -30.68505461 -16.63053228 0 0 Z " fill="#96D743" transform="translate(586,81)"/>
<path d="M0 0 C4.89911685 16.80827172 9.25096171 33.72757091 13.44677734 50.72265625 C15.86459856 60.51080087 18.3569235 70.26967323 21 80 C21.26707764 80.98436035 21.53415527 81.9687207 21.80932617 82.98291016 C22.5369146 85.65600164 23.26825095 88.32804499 24 91 C24.51310137 92.88539475 25.02612188 94.77081151 25.5390625 96.65625 C26.43691592 99.95190021 27.34693017 103.24354831 28.2734375 106.53125 C28.64063419 107.85416411 29.00782237 109.17708059 29.375 110.5 C29.69210937 111.6240625 30.00921875 112.748125 30.3359375 113.90625 C31.59649123 119.77894737 31.59649123 119.77894737 31 123 C28.9176338 125.33085291 26.44770813 126.99598711 23.875 128.75 C23.14651855 129.27021729 22.41803711 129.79043457 21.66748047 130.32641602 C19.4563933 131.90119662 17.22889877 133.45058193 15 135 C13.81572312 135.84488045 12.63327248 136.6923298 11.453125 137.54296875 C9.19994306 139.16607657 6.94102999 140.78049177 4.67578125 142.38671875 C-5.87820196 149.87840631 -16.34084918 157.49618954 -26.75 165.1875 C-33.26724298 170.00285057 -39.82113274 174.75864444 -46.42578125 179.453125 C-52.86498913 184.0326011 -59.25656021 188.67868825 -65.65917969 193.30908203 C-68.01309513 195.00945942 -70.36946376 196.70638246 -72.7265625 198.40234375 C-84.03213249 206.54046595 -95.31497939 214.6643761 -106.0390625 223.56640625 C-108 225 -108 225 -110 225 C-106.59349412 238.64202998 -102.53995692 251.96999157 -98.08984375 265.3046875 C-97.43341985 267.28645076 -96.77755282 269.26839855 -96.12220764 271.2505188 C-94.41413418 276.41235606 -92.69943816 281.57196674 -90.98297119 286.73101807 C-88.2318352 295.00434202 -85.49187408 303.28137676 -82.75027657 311.55786514 C-81.80154784 314.41918905 -80.85048708 317.27972831 -79.89891052 320.1401062 C-76.82365219 329.39596238 -73.80864545 338.65908484 -71 348 C-67.42117992 359.73606171 -63.56825953 371.37417165 -59.65380859 383.00170898 C-59.2408252 384.23219971 -58.8278418 385.46269043 -58.40234375 386.73046875 C-57.85308228 388.36085083 -57.85308228 388.36085083 -57.29272461 390.02416992 C-56.20500971 393.31640011 -55.19206111 396.62931325 -54.1809082 399.94580078 C-52.0275804 406.97158327 -49.74300483 413.95105685 -47.43440628 420.92683411 C-46.6777584 423.21337497 -45.9228258 425.50047631 -45.16830444 427.78771973 C-44.08772974 431.06309947 -43.00663932 434.3383082 -41.92510986 437.6133728 C-32.18011173 467.12754005 -22.52118513 496.6652106 -13.14096069 526.29772949 C-11.47535232 531.54990556 -9.74286059 536.77141823 -8 542 C101.23 542 210.46 542 323 542 C326.96310489 533.44649911 326.96310489 533.44649911 330.21875 524.76953125 C330.58677734 523.65779541 330.95480469 522.54605957 331.33398438 521.40063477 C331.71876953 520.21655029 332.10355469 519.03246582 332.5 517.8125 C332.9246664 516.5205994 333.3498121 515.22885627 333.77539062 513.93725586 C334.94141253 510.39156639 336.09864125 506.843067 337.25341797 503.29370117 C338.0230813 500.92908804 338.79453268 498.5650644 339.56640625 496.20117188 C344.35593158 481.52980822 349.12693396 466.85242258 353.83984375 452.15625 C354.70550364 449.4582609 355.57143087 446.76035775 356.4375 444.0625 C356.64288391 443.42225891 356.84826782 442.78201782 357.05987549 442.12237549 C359.76865514 433.68732827 362.57386119 425.30499475 365.6484375 416.99609375 C366.85585318 413.58591534 367.82550159 410.1250175 368.79980469 406.64160156 C370.8914963 399.28650665 373.18834111 392.00988076 375.5546875 384.73828125 C375.99074617 383.39288499 376.42668657 382.04745038 376.86251831 380.70198059 C381.18437919 367.37587326 385.56930952 354.07039937 389.95653343 340.76570225 C397.76017834 317.09891252 405.52661447 293.42112371 413.125 269.6875 C413.4464801 268.68544525 413.76796021 267.6833905 414.09918213 266.65097046 C416.08980524 260.44130389 418.06147976 254.22613824 420 248 C420.25616089 247.17808167 420.51232178 246.35616333 420.77624512 245.50933838 C421.50316198 243.16122949 422.21877556 240.81002914 422.9296875 238.45703125 C423.14190948 237.77106369 423.35413147 237.08509613 423.57278442 236.37834167 C424.62424922 232.8432118 425.41150905 229.69156355 425 226 C418.25676986 217.59644969 408.04121631 211.62734652 399.26464844 205.57519531 C395.49518782 202.9533152 391.77940718 200.25812765 388.0625 197.5625 C386.55209401 196.46873525 385.04167732 195.37498529 383.53125 194.28125 C382.78230469 193.73855469 382.03335938 193.19585937 381.26171875 192.63671875 C379.02060267 191.01490936 376.77648685 189.39734868 374.53125 187.78125 C365.92157115 181.58160367 357.35650631 175.32584432 348.82446289 169.01977539 C343.70039249 165.23778623 338.54128753 161.51163674 333.34667969 157.82739258 C328.35454548 154.27651722 323.42603527 150.64182922 318.5 147 C307.44911256 138.8331005 296.27939568 130.84879607 285 123 C285.46883671 116.31907695 286.92041917 110.16393954 288.703125 103.7265625 C290.33409137 97.83696173 291.84798728 91.91722627 293.375 86 C293.98551764 83.6418858 294.59619524 81.283813 295.20703125 78.92578125 C296.07360038 75.57866379 296.94009534 72.23152735 297.80615234 68.88427734 C300.68465784 57.76735371 303.62211293 46.67050543 306.66674805 35.59790039 C309.90641755 23.76592517 312.94598201 11.88097455 316 0 C319.25079122 0.61308385 321.28382443 1.7177733 323.9140625 3.703125 C324.6656665 4.26459229 325.41727051 4.82605957 326.19165039 5.40454102 C326.99465576 6.01354248 327.79766113 6.62254395 328.625 7.25 C330.34446874 8.53593663 332.06453485 9.82107482 333.78515625 11.10546875 C334.65672363 11.75821777 335.52829102 12.4109668 336.42626953 13.08349609 C340.27607259 15.95021531 344.16611732 18.75958219 348.0625 21.5625 C348.80000488 22.09391602 349.53750977 22.62533203 350.29736328 23.17285156 C351.78672177 24.24591761 353.27630441 25.31867262 354.76611328 26.39111328 C359.26523169 29.63146195 363.75824119 32.88027702 368.25244141 36.12744141 C371.987945 38.82598022 375.7248148 41.52257953 379.46484375 44.21484375 C387.97920681 50.34756679 396.45216202 56.53232789 404.89208984 62.76708984 C412.4766884 68.36432174 420.1158833 73.88408627 427.76611328 79.39111328 C431.51359784 82.09012128 435.25655845 84.79538884 439 87.5 C440.49997854 88.58336304 441.99997854 89.66669638 443.5 90.75 C446.5 92.91666667 449.5 95.08333333 452.5 97.25 C453.24282227 97.78641113 453.98564453 98.32282227 454.75097656 98.87548828 C456.24799621 99.95681359 457.74474196 101.0385182 459.24121094 102.12060547 C463.03463212 104.8628675 466.83287271 107.59797742 470.640625 110.3203125 C504.44711529 134.52386179 536.87328638 162.11129354 544.40844727 205.30981445 C547.82822832 227.02077492 545.55759752 246.50862919 538.9375 267.41015625 C538.53598604 268.68936468 538.13471021 269.96864788 537.73365784 271.2480011 C533.96413594 283.23833222 530.05466389 295.1829998 526.11523438 307.11843872 C524.04848598 313.38160963 521.99003428 319.64750108 519.93359375 325.9140625 C519.72566067 326.54754923 519.51772758 327.18103596 519.3034935 327.83371925 C514.96584101 341.05442545 510.72216295 354.30453023 506.5 367.5625 C501.59293215 382.97034061 496.62208124 398.35190224 491.44726562 413.67211914 C489.59963008 419.15217344 487.78828707 424.63367996 486.109375 430.16796875 C483.15629723 439.86852009 479.86551657 449.45961293 476.63623047 459.07080078 C473.5958503 468.12625939 470.59051481 477.1805455 467.81835938 486.32226562 C466.77442627 489.73809448 465.64808986 493.11778933 464.5 496.5 C462.63084212 502.0512423 460.86669337 507.6272234 459.16015625 513.23046875 C455.30434504 525.75860955 451.29536455 538.23859202 447.09765625 550.65625 C446.07381267 553.77514716 445.15652123 556.90796871 444.25 560.0625 C437.54192127 581.93083666 427.82698255 603.46376815 413 621 C412.36835937 621.7940625 411.73671875 622.588125 411.0859375 623.40625 C392.70098969 645.62465501 363.56506354 657.34821909 335.55323935 660.78165102 C330.07390984 661.25023459 324.57036142 661.14408944 319.07501221 661.14044189 C317.65930468 661.14302886 316.24359787 661.14604294 314.82789207 661.1494453 C310.95103248 661.15748017 307.07419144 661.15930291 303.19732451 661.16004276 C299.01026273 661.16189955 294.82321044 661.16945019 290.63615417 661.17617798 C281.48475176 661.1897386 272.33335373 661.19578297 263.18194294 661.20018864 C257.46028107 661.20295588 251.73862088 661.2071942 246.01696014 661.21169281 C230.15529105 661.22388436 214.29362329 661.2341827 198.43194962 661.2375679 C197.41743594 661.23778747 196.40292227 661.23800703 195.35766576 661.23823325 C194.34080269 661.23845153 193.32393962 661.23866981 192.27626252 661.2388947 C190.2159133 661.23933816 188.15556407 661.23978472 186.09521484 661.24023438 C185.07322297 661.2404558 184.05123109 661.24067723 182.99826977 661.24090537 C166.46119479 661.24484818 149.92416401 661.26228689 133.38710609 661.2855939 C116.38232789 661.30936522 99.37757182 661.32177244 82.37277675 661.32293582 C72.83605081 661.32384953 63.29938242 661.32952461 53.76267242 661.34775543 C45.63687516 661.3632349 37.51115322 661.36823111 29.385344 661.36001733 C25.24715941 661.35613789 21.10912612 661.35690601 16.97096062 661.37107468 C-23.68068488 661.50207912 -60.88759197 656.12957091 -91.703125 627.328125 C-114.46596971 604.25558172 -124.70640774 573.28702222 -133.30932617 542.765625 C-134.88728181 537.2074111 -136.80215062 531.80731276 -138.76831055 526.37866211 C-140.80414857 520.70071051 -142.52055309 514.9626325 -144.17578125 509.1640625 C-145.46018484 504.70981672 -146.90238209 500.35487748 -148.5 496 C-150.81975015 489.6641824 -152.74474833 483.27377551 -154.59375 476.7890625 C-159.22484901 460.84479944 -164.65042007 445.17608172 -170.06152344 429.48413086 C-173.69668245 418.93258582 -177.27147309 408.39550055 -180.34619141 397.6655426 C-182.01428954 391.85991827 -183.94840242 386.17942257 -186 380.5 C-188.34372186 374.01189192 -190.46667747 367.50220682 -192.375 360.875 C-194.94483372 351.97307212 -197.93525991 343.24169526 -201 334.5 C-204.30365159 325.07684676 -207.45118239 315.65713002 -210.21008301 306.05889893 C-212.05296594 299.69414448 -214.24555993 293.47998524 -216.5 287.25 C-219.35700375 279.16157074 -221.95479906 271.09902976 -223.9375 262.75 C-224.12441406 261.96657227 -224.31132812 261.18314453 -224.50390625 260.37597656 C-227.27082815 248.06420654 -228.41393229 235.85879696 -228.375 223.25 C-228.37412384 222.55100586 -228.37324768 221.85201172 -228.37234497 221.13183594 C-228.29919834 203.38631095 -224.87232607 188.87319801 -217 173 C-216.5153125 172.00355469 -216.030625 171.00710938 -215.53125 169.98046875 C-206.18135976 151.82609854 -191.74938732 137.84385275 -175.5625 125.8125 C-174.68996582 125.16104004 -173.81743164 124.50958008 -172.91845703 123.83837891 C-166.09168508 118.76263366 -159.17131773 113.83191928 -152.203125 108.953125 C-140.70584428 100.89749987 -129.39931251 92.57388228 -118.1081543 84.2331543 C-110.52356151 78.63572327 -102.88420831 73.11597968 -95.23388672 67.60888672 C-91.48640231 64.90987882 -87.74338799 62.20468506 -84 59.5 C-79.51389621 56.25868547 -75.02695169 53.01858046 -70.53515625 49.78515625 C-61.92488525 43.58324087 -53.35796298 37.32692095 -44.82446289 31.01977539 C-39.70841848 27.24371008 -34.55798438 23.52252722 -29.37084961 19.8449707 C-23.292481 15.52255552 -17.30067124 11.0828236 -11.30664062 6.64453125 C-10.53126953 6.07089844 -9.75589844 5.49726563 -8.95703125 4.90625 C-8.26585205 4.39384766 -7.57467285 3.88144531 -6.86254883 3.35351562 C-2.2478355 0 -2.2478355 0 0 0 Z " fill="#FEFEFE" transform="translate(356,223)"/>
<path d="M0 0 C0.68473389 0.25990723 1.36946777 0.51981445 2.07495117 0.78759766 C17.65125566 6.69934142 33.23037985 12.60360149 48.8125 18.5 C49.6119101 18.802547 50.41132019 19.10509399 51.23495483 19.41680908 C53.53809474 20.28842751 55.84130124 21.15986971 58.14453125 22.03125 C58.82061432 22.28711884 59.49669739 22.54298767 60.19326782 22.80661011 C60.84081024 23.05154205 61.48835266 23.296474 62.15551758 23.54882812 C63.0962336 23.91633934 63.0962336 23.91633934 64.05595398 24.29127502 C66.02373742 25.03811038 66.02373742 25.03811038 68.19270325 25.60508728 C70.3150093 26.23450037 72.10663408 26.85080371 74 28 C75.42993164 31.12719727 75.42993164 31.12719727 76.09765625 35.00390625 C76.38702207 36.45744031 76.68441199 37.90939428 76.98876953 39.35986328 C77.1443634 40.12051086 77.29995728 40.88115845 77.46026611 41.66485596 C78.37697687 45.63098023 79.71256752 49.43963858 81.05859375 53.27734375 C81.4691954 54.4616246 81.4691954 54.4616246 81.88809204 55.66983032 C82.73215542 58.09443985 83.58399686 60.51619897 84.4375 62.9375 C87.89789004 72.7943987 91.25308351 82.63425394 94.13204956 92.67802429 C96.48128052 100.80225579 99.27496488 108.76787088 102.0625 116.75 C105.1972377 125.75077069 108.27922245 134.74284754 111.03686523 143.86816406 C112.75246753 149.44680697 114.63537309 154.96975841 116.5 160.5 C118.68803928 166.98944074 120.85872075 173.47643002 122.84375 180.03125 C125.70404734 189.41642365 128.8771275 198.69976656 132 208 C135.79379142 219.29829854 139.547129 230.59223779 143 242 C144.092117 245.50384913 145.20007781 249.00254989 146.3125 252.5 C146.60809814 253.42997803 146.90369629 254.35995605 147.20825195 255.31811523 C149.60059885 262.81354591 152.08104253 270.27764219 154.58520508 277.73632812 C156.44813713 283.29933064 158.20969719 288.8838252 159.90625 294.5 C161.63935824 300.04594636 163.50192275 305.54867203 165.36328125 311.05273438 C166.96325605 315.80517094 168.49502739 320.57155704 169.9609375 325.3671875 C177.00062201 348.36619519 184.45739102 370.26691196 200 389 C200.57105469 389.721875 201.14210938 390.44375 201.73046875 391.1875 C221.55685383 415.29939825 252.74449014 426.29781188 282.79077482 429.7234807 C294.21499238 430.70783563 305.76532549 430.42008456 317.22478104 430.39217401 C321.40751301 430.38530537 325.59020939 430.39590282 329.77293396 430.40411377 C337.93912262 430.41737035 346.10522801 430.4146099 354.27141978 430.40587585 C360.91410134 430.39906856 367.55675976 430.39819565 374.19944382 430.4014473 C375.14903663 430.401907 376.09862945 430.40236669 377.07699781 430.40284032 C379.00674897 430.40379961 380.93650013 430.40477225 382.86625127 430.4057581 C400.91014967 430.41428809 418.95400215 430.40451507 436.99789302 430.388357 C452.4455584 430.37495166 467.89315614 430.37728835 483.34082031 430.39111328 C501.32837293 430.40720401 519.31588545 430.41346889 537.30344427 430.40427649 C539.22502541 430.40332095 541.14660656 430.40237784 543.06818771 430.4014473 C544.48596592 430.40075306 544.48596592 430.40075306 545.93238611 430.40004479 C552.56012423 430.39746569 559.18783669 430.40180239 565.81557083 430.40888596 C573.90235197 430.41733991 581.98904586 430.41493937 590.07581712 430.39904372 C594.19357665 430.39121372 598.31119123 430.38797826 602.42894936 430.39799118 C641.18956648 430.48424959 677.31026097 424.4775499 706 396 C726.76783745 373.361788 738.26379021 343.16912508 746.42773438 314.01318359 C749.17142673 304.36109863 752.36541786 294.87676602 755.76489258 285.43896484 C757.81881 279.67054404 759.56278395 273.83899834 761.24609375 267.95336914 C762.60430438 263.23851621 764.18024646 258.66180097 765.92041016 254.07275391 C767.17449296 250.50335405 768.21395644 246.88666002 769.25 243.25 C772.0804892 233.47817414 775.4055946 223.9001386 778.77050781 214.30224609 C781.90453945 205.34417219 784.86595026 196.37941833 787.43969727 187.24206543 C788.90083627 182.09916373 788.90083627 182.09916373 790 181 C792.70562762 181.02630955 795.37095231 181.12537948 798.0703125 181.28125 C799.33393112 181.35152405 799.33393112 181.35152405 800.62307739 181.42321777 C810.38482271 182.01534348 820.09528855 183.06702693 829.81201172 184.15673828 C832.91961705 184.50500013 836.02805924 184.84488253 839.13671875 185.18359375 C841.13026092 185.40316895 843.12375256 185.62320345 845.1171875 185.84375 C846.03797089 185.94482056 846.95875427 186.04589111 847.90744019 186.15002441 C851.98203812 186.60905602 855.99551989 187.09003253 860 188 C859.37384317 194.96733739 857.08243804 201.31979459 854.87109375 207.92578125 C854.44508568 209.21316919 854.01966433 210.50075142 853.5947876 211.78851318 C852.6880804 214.53342961 851.77797988 217.27718641 850.86508179 220.02005005 C848.68883341 226.55955963 846.52953441 233.10467106 844.36986732 239.64967155 C843.88249218 241.12648453 843.39490031 242.603226 842.90709496 244.07989693 C838.73649505 256.70647074 834.66511688 269.36260472 830.6468811 282.0385437 C775.98011492 454.34745341 775.98011492 454.34745341 713.3125 487.6875 C677.12670384 505.0953663 634.51809177 504.15941187 595.31719029 504.14538372 C591.68148314 504.14517609 588.04578344 504.15073243 584.41007996 504.15544128 C577.31465247 504.16367364 570.21923329 504.16649279 563.12380142 504.16705366 C557.33852408 504.16753269 551.55324943 504.16960648 545.76797295 504.17275429 C529.27290305 504.18154316 512.77783961 504.18617682 496.28276736 504.18542381 C494.95472501 504.18536388 494.95472501 504.18536388 493.59985352 504.18530273 C492.71337777 504.18526185 491.82690202 504.18522097 490.91356336 504.18517885 C476.59207549 504.18477361 462.27061406 504.19431703 447.94913382 504.2084411 C433.15299479 504.22291498 418.35686856 504.2297052 403.56072229 504.22884732 C395.29066906 504.22851896 387.02064377 504.23116227 378.750597 504.24202538 C202.2188651 504.46243682 202.2188651 504.46243682 154 457 C146.12025566 448.88391206 139.67443489 439.76921699 134 430 C133.58814453 429.29536621 133.17628906 428.59073242 132.75195312 427.86474609 C109.37806321 387.20647969 97.55801733 339.50043016 83.44213867 295.10961914 C77.58110424 276.70005074 71.54755343 258.34888691 65.5 240 C58.13874732 217.66282461 50.84685413 195.30710352 43.72363281 172.89257812 C40.42639145 162.52656411 37.08378265 152.17788903 33.6640625 141.8515625 C22.0215155 106.67323504 10.42518927 71.35739585 3 35 C2.79407227 34.00581055 2.58814453 33.01162109 2.37597656 31.98730469 C-2.10579308 10.04574998 -2.10579308 10.04574998 -1 1 C-0.67 0.67 -0.34 0.34 0 0 Z " fill="#69A320" transform="translate(58,453)"/>
<path d="M0 0 C11.24452559 2.56281892 22.39059179 5.39374359 33.51577759 8.43099976 C62.68632851 16.38018549 91.96466356 23.8056291 121.50634766 30.24731445 C129.59675434 32.01213872 137.65257893 33.87083742 145.6875 35.875 C160.15292803 39.44813362 174.78244378 42.28656696 189.38745117 45.22216797 C191.40025203 45.62715857 193.41302858 46.03226997 195.42578125 46.4375 C196.44560593 46.64256165 197.4654306 46.84762329 198.51615906 47.05889893 C204.94868306 48.35984827 211.36486807 49.72357453 217.77635193 51.1242981 C236.36349706 55.17689955 255.04328571 58.67561177 273.75 62.125 C275.52183188 62.45241423 277.2936621 62.77983744 279.06549072 63.10726929 C330.40179337 72.58360098 381.86517414 81.14690476 433.52618027 88.65670776 C435.61100085 88.95980637 437.69565285 89.26404125 439.78027344 89.56851196 C442.31837698 89.93835411 444.85693228 90.3051134 447.39599609 90.66830444 C448.5078125 90.83021271 449.61962891 90.99212097 450.76513672 91.15893555 C451.73377655 91.2981694 452.70241638 91.43740326 453.70040894 91.58085632 C456 92 456 92 458 93 C457.4038696 97.99124087 456.35883235 102.49354803 454.81640625 107.30078125 C454.59739151 107.98674881 454.37837677 108.67271637 454.15272522 109.37947083 C451.49049834 117.67373826 448.71406732 125.93098022 445.9375 134.1875 C441.91136856 146.10641472 441.91136856 146.10641472 438.12109375 158.1015625 C435.28965583 167.42277573 432.22154721 176.66880126 429.19189453 185.92700195 C428.13317662 189.16251171 427.07621158 192.39858992 426.01953125 195.63476562 C424.6548806 199.81328354 423.28484295 203.9899798 421.91113281 208.16552734 C420.69890027 211.85281659 419.50495252 215.54496761 418.33105469 219.24462891 C418.07137909 220.05160721 417.81170349 220.85858551 417.54415894 221.6900177 C417.07495589 223.14829209 416.61248571 224.6087638 416.15921021 226.07206726 C414.92421855 229.87602296 413.37656809 233.26055934 411.40530396 236.74650574 C410.9549132 237.54622897 410.50452244 238.34595221 410.04048347 239.16990948 C409.69712393 239.77383935 409.35376438 240.37776922 409 241 C367.41022108 241.02287429 325.82044289 241.04050227 284.23065893 241.05106533 C279.32385725 241.05231608 274.41705557 241.0536104 269.51025391 241.05493164 C268.53337212 241.05519395 267.55649033 241.05545626 266.55000606 241.05572652 C250.71941637 241.06008129 234.88883031 241.06796778 219.05824277 241.0771528 C202.82220551 241.08649469 186.58617015 241.09205675 170.35013032 241.09408849 C160.32656799 241.0954626 150.30301589 241.09980717 140.2794567 241.10791647 C133.41179792 241.11319052 126.54414445 241.11480278 119.67648378 241.11350138 C115.71050937 241.11285904 111.74455287 241.11386386 107.77858162 241.11920547 C104.15030025 241.12405673 100.52204892 241.12432721 96.89376619 241.12089889 C94.95415357 241.12027352 93.01454132 241.12459981 91.07493377 241.12908131 C89.92789922 241.12709026 88.78086467 241.12509921 87.5990715 241.12304783 C86.607242 241.12342755 85.6154125 241.12380727 84.59352756 241.1241985 C82.20703062 241.00991425 80.24315207 240.81617627 78 240 C76.68618774 237.7928772 76.68618774 237.7928772 75.55322266 234.85400391 C75.13051086 233.76049622 74.70779907 232.66698853 74.27227783 231.54034424 C72.10555966 225.51105724 70.09526069 219.43917007 68.1484375 213.3359375 C67.69227797 211.91945183 67.23562474 210.50312508 66.77851868 209.08694458 C65.80884552 206.07978265 64.84218482 203.07167705 63.87802124 200.06274414 C62.35590087 195.31294517 60.82684395 190.56539901 59.29614258 185.81835938 C59.03902905 185.02097225 58.78191553 184.22358513 58.51701069 183.40203476 C57.99556434 181.78494901 57.47409041 180.16787215 56.95258904 178.55080414 C56.1660599 176.11126691 55.38016453 173.67152623 54.59437561 171.23175049 C49.67749764 155.97066544 44.69125859 140.73279267 39.6875 125.5 C34.38754489 109.35976466 29.09199847 93.2188878 23.93823242 77.03125 C22.04704787 71.11742473 20.02442629 65.27659898 17.87768555 59.45092773 C16.7327638 56.2537457 15.78972314 53.01995517 14.875 49.75 C13.20924711 43.90417656 11.40740175 38.10840821 9.52734375 32.328125 C9.30600769 31.64715759 9.08467163 30.96619019 8.85662842 30.2645874 C7.73688174 26.82495529 6.61071714 23.38753858 5.47802734 19.95214844 C3.31384461 13.34939385 1.33930844 6.82373909 0 0 Z " fill="#75B029" transform="translate(270,525)"/>
<path d="M0 0 C3.78325254 2.81873459 7.60367901 5.57713887 11.453125 8.3046875 C10.86548182 15.09369463 9.557961 21.36383892 7.765625 27.9296875 C7.21988159 29.97391282 6.67431358 32.01818498 6.12890625 34.0625 C5.84998535 35.09922852 5.57106445 36.13595703 5.28369141 37.20410156 C3.98173296 42.06444027 2.71846572 46.93471369 1.453125 51.8046875 C0.95203517 53.72661785 0.45073271 55.64849278 -0.05078125 57.5703125 C-0.29844238 58.51970703 -0.54610352 59.46910156 -0.80126953 60.44726562 C-1.53772601 63.26962536 -2.27465732 66.0918607 -3.01171875 68.9140625 C-5.69970103 79.20846272 -8.37852549 89.50517971 -11.046875 99.8046875 C-13.95705093 111.03761614 -16.88083004 122.26693216 -19.81298828 133.49414062 C-21.05851177 138.26408954 -22.30261268 143.03440949 -23.546875 147.8046875 C-24.04686838 149.72135589 -24.54686837 151.63802256 -25.046875 153.5546875 C-25.294375 154.5034375 -25.541875 155.4521875 -25.796875 156.4296875 C-26.546875 159.3046875 -27.296875 162.1796875 -28.046875 165.0546875 C-28.294375 166.00351807 -28.541875 166.95234863 -28.796875 167.92993164 C-29.29671597 169.845826 -29.79671588 171.7616789 -30.296875 173.67749023 C-31.5506172 178.48064515 -32.80155504 183.28449779 -34.046875 188.08984375 C-36.4433808 197.32536822 -38.87844631 206.5459909 -41.421875 215.7421875 C-44.36130019 226.38408638 -47.02617109 237.09241537 -49.65576172 247.81420898 C-51.17975857 254.0038695 -52.76578544 260.16259314 -54.54296875 266.28515625 C-56.92740397 274.50426734 -58.94906996 282.80589093 -60.97143555 291.11938477 C-63.53311939 301.62652167 -66.48999847 311.9113073 -69.546875 322.3046875 C-81.426875 322.3046875 -93.306875 322.3046875 -105.546875 322.3046875 C-106.454375 318.6540625 -107.361875 315.0034375 -108.296875 311.2421875 C-110.27551245 303.31067645 -112.2958591 295.39610743 -114.42578125 287.50390625 C-115.9629715 281.78093975 -117.43747534 276.041519 -118.921875 270.3046875 C-121.12218153 261.80257194 -123.32707355 253.30173517 -125.546875 244.8046875 C-128.02323666 235.32328675 -130.48397634 225.83788583 -132.94140625 216.3515625 C-134.80303748 209.16747019 -136.67151567 201.98520772 -138.546875 194.8046875 C-141.02316737 185.32326858 -143.4839763 175.83788599 -145.94140625 166.3515625 C-148.04456754 158.23539824 -150.157114 150.121731 -152.27734375 142.01000977 C-153.61467681 136.89019998 -154.94462133 131.76858062 -156.265625 126.64453125 C-158.91729023 116.36585867 -161.58443601 106.09628252 -164.421875 95.8671875 C-167.60557897 84.37412557 -170.4532481 72.79715086 -173.30029297 61.21704102 C-175.79878712 51.08695 -178.56337448 41.06054296 -181.50292969 31.04833984 C-182.39968435 27.95335007 -183.25817311 24.84997143 -184.109375 21.7421875 C-184.41939453 20.70255859 -184.72941406 19.66292969 -185.04882812 18.59179688 C-185.80376505 15.77300362 -186.41867158 13.22013906 -186.546875 10.3046875 C-184.53515625 7.3515625 -184.53515625 7.3515625 -181.546875 5.3046875 C-180.69351562 4.60988281 -179.84015625 3.91507813 -178.9609375 3.19921875 C-118.36032348 -42.03905474 -60.82702241 -45.32900997 0 0 Z " fill="#FEFEFE" transform="translate(601.546875,169.6953125)"/>
</svg>
